<?xml version="1.0" encoding="utf-8"?>
<!-- Generator: Adobe Illustrator 20.0.0, SVG Export Plug-In . SVG Version: 6.00 Build 0)  -->
<svg version="1.1" id="Layer_1" xmlns="http://www.w3.org/2000/svg" xmlns:xlink="http://www.w3.org/1999/xlink" x="0px" y="0px"
	 viewBox="0 0 44 44" style="enable-background:new 0 0 44 44;" xml:space="preserve">
<style type="text/css">
	.st0{fill:#FFC315;}
</style>
<g id="Cross">
	<path class="st0" d="M32.5,32.4c-1.1,1.1-2.8,1.1-3.8,0l-5.9-6.8l-5.9,6.8c-1.1,1.1-2.8,1.1-3.8,0c-1.1-1.1-1.1-2.8,0-3.8l6.2-7.1
		L13,14.4c-1.1-1.1-1.1-2.8,0-3.8c1.1-1.1,2.8-1.1,3.8,0l5.9,6.8l5.9-6.8c1.1-1.1,2.8-1.1,3.8,0c1.1,1.1,1.1,2.8,0,3.8l-6.2,7.1
		l6.2,7.1C33.6,29.6,33.6,31.3,32.5,32.4z"/>
</g>
</svg>
